PathFileType	4	(X/Y/Z)	/Users/itak/Documents/Research/Walk-IL/dataset/trc/00417_00012.trc
DataRate	CameraRate	NumFrames	NumMarkers	Units	OrigDataRate	OrigDataStartFrame	OrigNumFrames
100.000000	100.000000	4	54	mm	100.000000	91	735
Frame#	Time	RPSI			LPSI			L3			STRN			T10			C7			CLAV			RBAK			LBAK			LSHO			LUPA			LAEL			LAOL			LWTS			LWPS			LFRA			LIFD			LHPS			LHTS			RSHO			RUPA			RAEL			RAOL			RWTS			RWPS			RFRA			RIFD			RHPS			RBHD			LFHD			RFHD			LBHD			LHIP			RHIP			RASI			LASI			LKNE			LTHI			LANK			LTIP			LTOE			LMT1			LMT5			LHEE			RKNE			RTHI			RANK			RTIP			RTOE			RMT1			RMT5			RHEE			RHTS			*53			
		X1	Y1	Z1	X2	Y2	Z2	X3	Y3	Z3	X4	Y4	Z4	X5	Y5	Z5	X6	Y6	Z6	X7	Y7	Z7	X8	Y8	Z8	X9	Y9	Z9	X10	Y10	Z10	X11	Y11	Z11	X12	Y12	Z12	X13	Y13	Z13	X14	Y14	Z14	X15	Y15	Z15	X16	Y16	Z16	X17	Y17	Z17	X18	Y18	Z18	X19	Y19	Z19	X20	Y20	Z20	X21	Y21	Z21	X22	Y22	Z22	X23	Y23	Z23	X24	Y24	Z24	X25	Y25	Z25	X26	Y26	Z26	X27	Y27	Z27	X28	Y28	Z28	X29	Y29	Z29	X30	Y30	Z30	X31	Y31	Z31	X32	Y32	Z32	X33	Y33	Z33	X34	Y34	Z34	X35	Y35	Z35	X36	Y36	Z36	X37	Y37	Z37	X38	Y38	Z38	X39	Y39	Z39	X40	Y40	Z40	X41	Y41	Z41	X42	Y42	Z42	X43	Y43	Z43	X44	Y44	Z44	X45	Y45	Z45	X46	Y46	Z46	X47	Y47	Z47	X48	Y48	Z48	X49	Y49	Z49	X50	Y50	Z50	X51	Y51	Z51	X52	Y52	Z52	X53	Y53	Z53	X54	Y54	Z54	

92	0.91	-1541.1796875	991.99560546875	-515.2705688476562	-1553.953735351562	983.1454467773438	-645.7335205078125	-1546.5361328125	1056.0556640625	-578.2908935546875	-1314.169311523438	1216.756713867188	-588.1721801757812	-1558.568115234375	1159.048706054688	-582.3316040039062	-1528.602294921875	1409.270141601562	-591.1346435546875	-1370.87060546875	1334.730346679688	-587.6480712890625	-1566.160522460938	1262.244750976562	-524.029296875	-1543.036254882812	1371.664428710938	-695.354248046875	-1456.829956054688	1388.67138671875	-746.0906982421875	-1475.310668945312	1271.542114257812	-816.6021118164062	-1445.335571289062	1073.961059570312	-837.2235717773438	-1504.827270507812	1052.292846679688	-779.9759521484375	-1346.1318359375	862.6983032226562	-781.9103393554688	-1389.455200195312	845.573974609375	-847.8492431640625	-1421.783203125	970.2987670898438	-843.7030639648438	-1329.728515625	683.5604858398438	-779.6572265625	-1370.650146484375	761.1931762695312	-836.681396484375	-1320.292236328125	767.879638671875	-798.8024291992188	-1467.255615234375	1388.658081054688	-433.8139953613281	-1476.867065429688	1322.564575195312	-374.9224548339844	-1455.339233398438	1059.289184570312	-342.0936889648438	-1477.293579101562	1050.633422851562	-433.1772155761719	-1316.777221679688	850.7545776367188	-377.0077514648438	-1357.036010742188	836.0427856445312	-316.4520263671875	-1425.549926757812	994.8161010742188	-328.0279846191406	-1306.320068359375	676.0488891601562	-370.5965881347656	-1347.377197265625	749.452392578125	-317.380859375	-1482.702270507812	1596.564453125	-492.0993347167969	-1358.92724609375	1609.370727539062	-646.8933715820312	-1354.128295898438	1607.38525390625	-524.239990234375	-1507.10302734375	1598.027465820312	-652.196533203125	-1474.069702148438	969.0127563476562	-763.781005859375	-1451.771118164062	966.9527587890625	-405.7351684570312	-1323.081176757812	973.2110595703125	-469.0612487792969	-1357.641967773438	965.5296630859375	-729.9633178710938	-1441.28369140625	474.8143310546875	-740.6702880859375	-1444.84716796875	617.5755615234375	-753.7463989257812	-1532.913818359375	43.05039978027344	-683.7530517578125	-1489.056640625	244.5061492919922	-725.4165649414062	-1314.395385742188	45.80374145507812	-632.2623901367188	-1392.007568359375	46.2410774230957	-597.1849365234375	-1406.506103515625	41.93291473388672	-702.5068969726562	-1567.086669921875	42.40850067138672	-625.0339965820312	-1433.837646484375	476.1051025390625	-432.0661926269531	-1383.17236328125	736.8760375976562	-412.2506103515625	-1496.0517578125	58.33823776245117	-466.6990051269531	-1429.974609375	349.9535522460938	-448.0006713867188	-1315.924560546875	39.74312973022461	-531.7201538085938	-1393.473266601562	43.99726104736328	-560.285888671875	-1410.643310546875	49.09243392944336	-463.0535888671875	-1569.14111328125	45.64065933227539	-518.5170288085938	-1294.918090820312	746.44287109375	-360.6239318847656	nan	nan	nan	
93	0.92	-1541.153930664062	991.9710083007812	-515.3184814453125	-1553.8671875	983.1302490234375	-645.8024291992188	-1546.519287109375	1056.008544921875	-578.3421020507812	-1314.201171875	1216.780029296875	-588.1031494140625	-1558.595336914062	1158.994018554688	-582.3876342773438	-1528.708374023438	1409.226440429688	-591.1396484375	-1370.93701171875	1334.715698242188	-587.5528564453125	-1566.25439453125	1262.194091796875	-524.0719604492188	-1543.072875976562	1371.62353515625	-695.3682861328125	-1456.769897460938	1388.661743164062	-746.0353393554688	-1475.268920898438	1271.513549804688	-816.568115234375	-1445.246704101562	1073.913330078125	-837.102783203125	-1504.743041992188	1052.261840820312	-779.8731689453125	-1346.105712890625	862.660888671875	-781.5693969726562	-1389.356201171875	845.5112915039062	-847.6439819335938	-1421.766967773438	970.2510986328125	-843.5668334960938	-1329.7890625	683.53857421875	-779.5400390625	-1370.638549804688	761.1470336914062	-836.3613891601562	-1320.25634765625	767.765380859375	-798.5612182617188	-1467.431396484375	1388.61962890625	-433.7696838378906	-1477.028076171875	1322.52783203125	-374.8860168457031	-1455.497924804688	1059.207885742188	-342.2091064453125	-1477.422607421875	1050.605102539062	-433.3406066894531	-1316.858642578125	850.700927734375	-377.3898010253906	-1357.176025390625	835.8967895507812	-316.8170471191406	-1425.770263671875	994.7128295898438	-328.2281494140625	-1306.611083984375	675.940185546875	-371.3540954589844	-1347.73388671875	749.2972412109375	-318.0017700195312	-1483.327392578125	1596.814819335938	-492.4640502929688	-1358.416381835938	1609.026977539062	-646.4605102539062	-1354.631103515625	1607.15673828125	-523.7554321289062	-1506.5263671875	1598.064697265625	-652.7782592773438	-1473.93798828125	969.0101928710938	-763.7990112304688	-1451.837158203125	966.9577026367188	-405.7480163574219	-1323.103515625	973.2398681640625	-469.0061950683594	-1357.56494140625	965.5233764648438	-729.9240112304688	-1441.229614257812	474.8086242675781	-740.6630249023438	-1444.7666015625	617.5732421875	-753.7412109375	-1532.938354492188	43.05349731445312	-683.7603759765625	-1489.034545898438	244.5068969726562	-725.4148559570312	-1314.384521484375	45.79193115234375	-632.2479858398438	-1391.999633789062	46.2397575378418	-597.1836547851562	-1406.505981445312	41.935302734375	-702.4957275390625	-1567.088012695312	42.41903305053711	-625.0435180664062	-1433.853393554688	476.1086730957031	-432.0689392089844	-1383.37109375	736.7168579101562	-412.0406494140625	-1496.051147460938	58.34814834594727	-466.7128601074219	-1429.9736328125	349.9506530761719	-448.0076293945312	-1315.922485351562	39.74245834350586	-531.7262573242188	-1393.465576171875	43.98123168945312	-560.2744140625	-1410.6318359375	49.09085464477539	-463.0563659667969	-1569.151977539062	45.64567565917969	-518.5308837890625	-1295.021606445312	746.3709716796875	-361.2864990234375	nan	nan	nan	
94	0.93	-1541.124633789062	991.9458618164062	-515.3646240234375	-1553.791259765625	983.116943359375	-645.8706665039062	-1546.49755859375	1055.960815429688	-578.3905029296875	-1314.228759765625	1216.796875	-588.0269165039062	-1558.616088867188	1158.939208984375	-582.4443359375	-1528.826782226562	1409.180297851562	-591.1432495117188	-1370.992553710938	1334.694702148438	-587.4540405273438	-1566.349487304688	1262.139038085938	-524.110595703125	-1543.10791015625	1371.582641601562	-695.379638671875	-1456.712036132812	1388.654907226562	-745.9766845703125	-1475.217651367188	1271.487182617188	-816.5322875976562	-1445.12841796875	1073.872192382812	-836.9782104492188	-1504.63720703125	1052.234497070312	-779.7804565429688	-1346.079711914062	862.614501953125	-781.2051391601562	-1389.25341796875	845.4533081054688	-847.4354858398438	-1421.736572265625	970.2071533203125	-843.4229736328125	-1329.886352539062	683.5036010742188	-779.3946533203125	-1370.594604492188	761.09228515625	-836.0324096679688	-1320.162109375	767.5943603515625	-798.2413330078125	-1467.6162109375	1388.583618164062	-433.7241821289062	-1477.204711914062	1322.494384765625	-374.8466491699219	-1455.65771484375	1059.134033203125	-342.2873840332031	-1477.531494140625	1050.580322265625	-433.4646301269531	-1316.937866210938	850.6614379882812	-377.6523132324219	-1357.3310546875	835.7705688476562	-317.0848693847656	-1426.012939453125	994.625	-328.3826599121094	-1306.812133789062	675.8372192382812	-371.9493103027344	-1348.047729492188	749.1514892578125	-318.4805603027344	-1483.98876953125	1597.079345703125	-492.7914123535156	-1357.914184570312	1608.69189453125	-646.0186157226562	-1355.101684570312	1606.9765625	-523.27294921875	-1505.919799804688	1598.077514648438	-653.3612060546875	-1473.8154296875	969.0115356445312	-763.8173828125	-1451.876708984375	966.956787109375	-405.7557373046875	-1323.132690429688	973.2677001953125	-468.9576721191406	-1357.496948242188	965.5189819335938	-729.8899536132812	-1441.17724609375	474.8028564453125	-740.6548461914062	-1444.684692382812	617.5701904296875	-753.7333374023438	-1532.96923828125	43.05800628662109	-683.7684326171875	-1489.013671875	244.5088653564453	-725.41015625	-1314.38037109375	45.78372955322266	-632.2366943359375	-1391.994873046875	46.23931884765625	-597.18310546875	-1406.50830078125	41.93913650512695	-702.4815673828125	-1567.091186523438	42.42916107177734	-625.051025390625	-1433.863525390625	476.1103820800781	-432.0689392089844	-1383.485961914062	736.6002197265625	-411.9176025390625	-1496.059936523438	58.36318588256836	-466.7297973632812	-1429.972412109375	349.9483642578125	-448.015380859375	-1315.917846679688	39.73645401000977	-531.73046875	-1393.461059570312	43.96901321411133	-560.2709350585938	-1410.630493164062	49.09140014648438	-463.0623779296875	-1569.160522460938	45.64980316162109	-518.5408935546875	-1295.110717773438	746.3154907226562	-361.77392578125	nan	nan	nan	
95	0.9400000000000001	-1541.0927734375	991.9212646484375	-515.4097290039062	-1553.727172851562	983.1063842773438	-645.9373779296875	-1546.472290039062	1055.912719726562	-578.4375	-1314.253784179688	1216.807861328125	-587.9407348632812	-1558.630737304688	1158.884521484375	-582.5006713867188	-1528.9541015625	1409.132080078125	-591.1458129882812	-1371.03857421875	1334.6640625	-587.3502197265625	-1566.448364257812	1262.078125	-524.1485595703125	-1543.138916015625	1371.542114257812	-695.3897094726562	-1456.656860351562	1388.651123046875	-745.9165649414062	-1475.154418945312	1271.463623046875	-816.4962158203125	-1444.983520507812	1073.838012695312	-836.8524780273438	-1504.51318359375	1052.21142578125	-779.6971435546875	-1346.040771484375	862.5684204101562	-780.8338012695312	-1389.147705078125	845.4010620117188	-847.226318359375	-1421.688842773438	970.1672973632812	-843.2726440429688	-1330.032592773438	683.457275390625	-779.2218627929688	-1370.518798828125	761.0313110351562	-835.7026977539062	-1320.0087890625	767.3780517578125	-797.85009765625	-1467.815185546875	1388.548461914062	-433.6788635253906	-1477.401611328125	1322.461791992188	-374.8067932128906	-1455.82373046875	1059.067016601562	-342.3313293457031	-1477.61962890625	1050.556762695312	-433.5552368164062	-1317.070434570312	850.6193237304688	-377.7852478027344	-1357.507934570312	835.6635131835938	-317.2525939941406	-1426.268310546875	994.5512084960938	-328.4881896972656	-1306.93701171875	675.7448120117188	-372.3782043457031	-1348.313232421875	749.0162963867188	-318.8080749511719	-1484.683837890625	1597.358642578125	-493.0799865722656	-1357.421752929688	1608.366577148438	-645.5682983398438	-1355.530151367188	1606.84619140625	-522.7977905273438	-1505.298095703125	1598.070068359375	-653.9417114257812	-1473.696411132812	969.0162353515625	-763.8355712890625	-1451.888549804688	966.94970703125	-405.7571716308594	-1323.17578125	973.290771484375	-468.9157104492188	-1357.4345703125	965.5164794921875	-729.8598022460938	-1441.126708984375	474.7969970703125	-740.64501953125	-1444.602783203125	617.5668334960938	-753.7222290039062	-1533.004150390625	43.06410980224609	-683.7767333984375	-1488.994262695312	244.5119476318359	-725.402587890625	-1314.381713867188	45.77780151367188	-632.2279663085938	-1391.994140625	46.23884963989258	-597.1828002929688	-1406.512451171875	41.94338226318359	-702.4666137695312	-1567.095458984375	42.43732070922852	-625.0556640625	-1433.8701171875	476.1104125976562	-432.0669250488281	-1383.529174804688	736.5338134765625	-411.8690490722656	-1496.076538085938	58.38229751586914	-466.7488708496094	-1429.972534179688	349.9484252929688	-448.0224914550781	-1315.911865234375	39.72611999511719	-531.73193359375	-1393.45166015625	43.9641227722168	-560.2730712890625	-1410.633544921875	49.09191131591797	-463.072509765625	-1569.16845703125	45.65282440185547	-518.54736328125	-1295.207397460938	746.27197265625	-362.0717163085938	nan	nan	nan	
